<svg width="24" height="24" viewBox="0 0 24 24" fill="none" xmlns="http://www.w3.org/2000/svg">
<g clip-path="url(#clip0)">
<path fill-rule="evenodd" clip-rule="evenodd" d="M4.45454 5.54541C4.45454 4.99313 4.90226 4.54541 5.45454 4.54541H20.1818C20.4979 4.54541 20.7954 4.69487 20.9841 4.94848C21.1728 5.20209 21.2305 5.52998 21.1396 5.83276L18.6851 14.0146C18.5582 14.4376 18.1689 14.7272 17.7273 14.7272H5.45454C4.90226 14.7272 4.45454 14.2795 4.45454 13.7272C4.45454 13.1749 4.90226 12.7272 5.45454 12.7272H16.9832L18.8378 6.54541H5.45454C4.90226 6.54541 4.45454 6.09769 4.45454 5.54541Z" fill="#81818A"/>
<path d="M5.45455 21.9091C6.35829 21.9091 7.09091 21.1765 7.09091 20.2727C7.09091 19.369 6.35829 18.6364 5.45455 18.6364C4.55081 18.6364 3.81818 19.369 3.81818 20.2727C3.81818 21.1765 4.55081 21.9091 5.45455 21.9091Z" fill="#81818A"/>
<path d="M18.5455 21.9091C19.4492 21.9091 20.1818 21.1765 20.1818 20.2727C20.1818 19.369 19.4492 18.6364 18.5455 18.6364C17.6417 18.6364 16.9091 19.369 16.9091 20.2727C16.9091 21.1765 17.6417 21.9091 18.5455 21.9091Z" fill="#81818A"/>
<path fill-rule="evenodd" clip-rule="evenodd" d="M2.29289 2.38377C2.68342 1.99325 3.31658 1.99325 3.70711 2.38377L6.16165 4.83832C6.34919 5.02586 6.45455 5.28021 6.45455 5.54543V13.7272C6.45455 13.8825 6.4184 14.0356 6.34897 14.1745L5.43622 16H21C21.5523 16 22 16.4477 22 17C22 17.5523 21.5523 18 21 18H3.81818C3.4716 18 3.14974 17.8205 2.96753 17.5257C2.78532 17.2309 2.76876 16.8627 2.92375 16.5528L4.45455 13.4912V5.95964L2.29289 3.79799C1.90237 3.40746 1.90237 2.7743 2.29289 2.38377Z" fill="#81818A"/>
</g>
<defs>
<clipPath id="clip0">
<rect width="20" height="20" fill="white" transform="translate(2 2)"/>
</clipPath>
</defs>
</svg>
