<svg width="16" height="16" viewBox="0 0 16 16" fill="none" xmlns="http://www.w3.org/2000/svg">
<path fill-rule="evenodd" clip-rule="evenodd" d="M12.4714 4.47138C12.7317 4.21103 12.7317 3.78892 12.4714 3.52858C12.211 3.26823 11.7889 3.26823 11.5286 3.52858L7.99998 7.05717L4.47138 3.52858C4.21103 3.26823 3.78892 3.26823 3.52858 3.52858C3.26823 3.78892 3.26823 4.21103 3.52858 4.47138L7.05717 7.99998L3.52858 11.5286C3.26823 11.7889 3.26823 12.211 3.52858 12.4714C3.78892 12.7317 4.21103 12.7317 4.47138 12.4714L7.99998 8.94279L11.5286 12.4714C11.7889 12.7317 12.211 12.7317 12.4714 12.4714C12.7317 12.211 12.7317 11.7889 12.4714 11.5286L8.94279 7.99998L12.4714 4.47138Z" fill="#27272A"/>
</svg>
