<svg width="16" height="16" viewBox="0 0 16 16" fill="none" xmlns="http://www.w3.org/2000/svg">
<g clip-path="url(#clip0)">
<path fill-rule="evenodd" clip-rule="evenodd" d="M8 2.66668C5.05447 2.66668 2.66665 5.0545 2.66665 8.00003C2.66665 10.9456 5.05447 13.3334 8 13.3334C10.9455 13.3334 13.3333 10.9456 13.3333 8.00003C13.3333 5.0545 10.9455 2.66668 8 2.66668ZM1.33331 8.00003C1.33331 4.31812 4.31809 1.33334 8 1.33334C11.6819 1.33334 14.6667 4.31812 14.6667 8.00003C14.6667 11.6819 11.6819 14.6667 8 14.6667C4.31809 14.6667 1.33331 11.6819 1.33331 8.00003ZM8.00001 4.5714C7.52662 4.5714 7.14287 4.95516 7.14287 5.42855C7.14287 5.90194 7.52662 6.2857 8.00001 6.2857C8.4734 6.2857 8.85716 5.90194 8.85716 5.42855C8.85716 4.95516 8.4734 4.5714 8.00001 4.5714ZM7.33339 11C7.33339 11.3682 7.63187 11.6666 8.00006 11.6666C8.36825 11.6666 8.66673 11.3682 8.66673 11L8.66673 7.57139C8.66673 7.2032 8.36825 6.90472 8.00006 6.90472C7.63187 6.90472 7.33339 7.2032 7.33339 7.57139V11Z" fill="#27272A"/>
</g>
<defs>
<clipPath id="clip0">
<rect width="13.3333" height="13.3333" fill="white" transform="translate(1.33331 1.33334)"/>
</clipPath>
</defs>
</svg>
